<svg width="32" height="32" viewBox="0 0 32 32" fill="none" xmlns="http://www.w3.org/2000/svg">
  <!-- Background Circle -->
  <circle cx="16" cy="16" r="14" fill="url(#faviconGradient)" />
  
  <!-- AI Brain Icon -->
  <g transform="translate(8, 8)">
    <!-- Brain shape -->
    <path d="M8 2 C12 0, 16 2, 16 8 C16 12, 12 14, 8 14 C4 14, 0 12, 0 8 C0 4, 4 1, 8 1 Z" 
          fill="white" opacity="0.9" />
    
    <!-- Neural connections -->
    <g opacity="0.7">
      <circle cx="4" cy="4" r="0.8" fill="white" />
      <circle cx="12" cy="4" r="0.8" fill="white" />
      <circle cx="8" cy="6" r="0.8" fill="white" />
      <circle cx="8" cy="2" r="0.8" fill="white" />
      
      <line x1="4" y1="4" x2="8" y2="2" stroke="white" strokeWidth="0.4" />
      <line x1="12" y1="4" x2="8" y2="2" stroke="white" strokeWidth="0.4" />
      <line x1="4" y1="4" x2="8" y2="6" stroke="white" strokeWidth="0.4" />
      <line x1="12" y1="4" x2="8" y2="6" stroke="white" strokeWidth="0.4" />
      <line x1="8" y1="2" x2="8" y2="6" stroke="white" strokeWidth="0.4" />
    </g>
  </g>
  
  <!-- Gradient Definition -->
  <defs>
    <linearGradient id="faviconGradient" x1="0%" y1="0%" x2="100%" y2="100%">
      <stop offset="0%" style="stop-color:#2563eb;stop-opacity:1" />
      <stop offset="100%" style="stop-color:#9333ea;stop-opacity:1" />
    </linearGradient>
  </defs>
</svg>
